<svg width="32" height="32" viewBox="0 0 32 32" fill="none" xmlns="http://www.w3.org/2000/svg">
  <!-- Lightbulb for ideas -->
  <path d="M16 4 C12 4 9 7 9 11 C9 13 10 15 11 17 L13 19 C13 21 15 22 16 22 C17 22 19 21 19 19 L21 17 C22 15 23 13 23 11 C23 7 20 4 16 4 Z" fill="none" stroke="#1f2937" stroke-width="1.5"/>
  <path d="M14 22 L14 26 L18 26 L18 22" fill="none" stroke="#1f2937" stroke-width="1.5"/>
  
  <!-- Checkmarks for recommendations -->
  <path d="M6 8 L8 10 L10 8" fill="none" stroke="#10b981" stroke-width="1.5" stroke-linecap="round" stroke-linejoin="round"/>
  <path d="M22 8 L24 10 L26 8" fill="none" stroke="#10b981" stroke-width="1.5" stroke-linecap="round" stroke-linejoin="round"/>
  <path d="M6 16 L8 18 L10 16" fill="none" stroke="#10b981" stroke-width="1.5" stroke-linecap="round" stroke-linejoin="round"/>
  <path d="M22 16 L24 18 L26 16" fill="none" stroke="#10b981" stroke-width="1.5" stroke-linecap="round" stroke-linejoin="round"/>
  
  <!-- Arrow pointing up for improvement -->
  <path d="M16 12 L16 8 M14 10 L16 8 L18 10" fill="none" stroke="#dc2626" stroke-width="1.5" stroke-linecap="round" stroke-linejoin="round"/>
</svg>
